<mxfile host="app.diagrams.net" agent="Mozilla/5.0 (Windows NT 10.0; Win64; x64) AppleWebKit/537.36 (KHTML, like Gecko) Chrome/126.0.0.0 Safari/537.36 OPR/112.0.0.0" version="24.7.13">
  <diagram name="Página-1" id="3Xi1DCqLjEFFIr2vxZpi">
    <mxGraphModel grid="1" page="1" gridSize="10" guides="1" tooltips="1" connect="1" arrows="1" fold="1" pageScale="1" pageWidth="827" pageHeight="1169" math="0" shadow="0">
      <root>
        <mxCell id="0" />
        <mxCell id="1" parent="0" />
        <mxCell id="TBz3SMUogmk-QKvKPOE5-1" value="" style="rounded=0;whiteSpace=wrap;html=1;align=left;" vertex="1" parent="1">
          <mxGeometry x="150" y="170" width="540" height="340" as="geometry" />
        </mxCell>
        <mxCell id="TBz3SMUogmk-QKvKPOE5-2" value="" style="edgeStyle=orthogonalEdgeStyle;rounded=0;orthogonalLoop=1;jettySize=auto;html=1;" edge="1" parent="1" source="TBz3SMUogmk-QKvKPOE5-3" target="TBz3SMUogmk-QKvKPOE5-5">
          <mxGeometry relative="1" as="geometry">
            <mxPoint x="190" y="330" as="targetPoint" />
          </mxGeometry>
        </mxCell>
        <mxCell id="TBz3SMUogmk-QKvKPOE5-3" value="User" style="shape=umlActor;verticalLabelPosition=bottom;verticalAlign=top;html=1;outlineConnect=0;" vertex="1" parent="1">
          <mxGeometry x="110" y="300" width="30" height="60" as="geometry" />
        </mxCell>
        <mxCell id="TBz3SMUogmk-QKvKPOE5-4" value="" style="edgeStyle=orthogonalEdgeStyle;rounded=0;orthogonalLoop=1;jettySize=auto;html=1;" edge="1" parent="1" source="TBz3SMUogmk-QKvKPOE5-5" target="TBz3SMUogmk-QKvKPOE5-7">
          <mxGeometry relative="1" as="geometry" />
        </mxCell>
        <mxCell id="TBz3SMUogmk-QKvKPOE5-5" value="Ingresar al apartado crear usuario" style="ellipse;whiteSpace=wrap;html=1;" vertex="1" parent="1">
          <mxGeometry x="180" y="300" width="120" height="60" as="geometry" />
        </mxCell>
        <mxCell id="TBz3SMUogmk-QKvKPOE5-6" style="edgeStyle=orthogonalEdgeStyle;rounded=0;orthogonalLoop=1;jettySize=auto;html=1;" edge="1" parent="1" source="TBz3SMUogmk-QKvKPOE5-7" target="TBz3SMUogmk-QKvKPOE5-9">
          <mxGeometry relative="1" as="geometry">
            <Array as="points">
              <mxPoint x="375" y="290" />
              <mxPoint x="485" y="290" />
            </Array>
          </mxGeometry>
        </mxCell>
        <mxCell id="TBz3SMUogmk-QKvKPOE5-7" value="Ingresar usuario" style="ellipse;whiteSpace=wrap;html=1;" vertex="1" parent="1">
          <mxGeometry x="320" y="295" width="110" height="70" as="geometry" />
        </mxCell>
        <mxCell id="TBz3SMUogmk-QKvKPOE5-9" value="Ingresar contraseña" style="ellipse;whiteSpace=wrap;html=1;" vertex="1" parent="1">
          <mxGeometry x="430" y="200" width="110" height="70" as="geometry" />
        </mxCell>
        <mxCell id="TBz3SMUogmk-QKvKPOE5-10" value="Iniciar sesión" style="ellipse;whiteSpace=wrap;html=1;" vertex="1" parent="1">
          <mxGeometry x="540" y="295" width="110" height="70" as="geometry" />
        </mxCell>
        <mxCell id="5CJhPwn6BCd3Jub-9VBc-3" value="implement" style="endArrow=block;dashed=1;endFill=0;endSize=12;html=1;rounded=0;exitX=1;exitY=0.5;exitDx=0;exitDy=0;entryX=0.5;entryY=0;entryDx=0;entryDy=0;" edge="1" parent="1" source="TBz3SMUogmk-QKvKPOE5-9" target="TBz3SMUogmk-QKvKPOE5-10">
          <mxGeometry width="160" relative="1" as="geometry">
            <mxPoint x="330" y="410" as="sourcePoint" />
            <mxPoint x="490" y="410" as="targetPoint" />
            <Array as="points">
              <mxPoint x="595" y="235" />
            </Array>
          </mxGeometry>
        </mxCell>
        <mxCell id="5CJhPwn6BCd3Jub-9VBc-4" value="Text" style="text;html=1;align=center;verticalAlign=middle;resizable=0;points=[];autosize=1;strokeColor=none;fillColor=none;" vertex="1" parent="1">
          <mxGeometry x="735" y="638" width="50" height="30" as="geometry" />
        </mxCell>
      </root>
    </mxGraphModel>
  </diagram>
</mxfile>
